<?xml version="1.0" encoding="UTF-8"?>
<svg version="1.1" xmlns="http://www.w3.org/2000/svg" width="196" height="60">
<path d="M0 0 C3.33216336 0.08174138 4.80223654 0.17819301 7.6875 1.9375 C9.125 4.375 9.125 4.375 9.625 8 C9.8725 9.670625 9.8725 9.670625 10.125 11.375 C12.09404064 12.62032282 12.09404064 12.62032282 14.125 13.375 C14.17949838 15.10380982 14.21801688 16.83312712 14.25 18.5625 C14.27320312 19.52542969 14.29640625 20.48835938 14.3203125 21.48046875 C14.11348216 24.54569441 13.4942407 26.63651859 12.125 29.375 C8.65439158 32.33522483 5.65081751 32.78994421 1.12109375 32.6015625 C-1.77889392 32.27240539 -4.21860969 31.57670038 -6.875 30.375 C-10.06233742 25.59399388 -10.05122398 21.09980962 -10.125 15.4375 C-10.15078125 14.25285156 -10.1765625 13.06820313 -10.203125 11.84765625 C-9.56048371 5.04636927 -7.123701 0.10569289 0 0 Z M-0.875 9.375 C-1.205 10.035 -1.535 10.695 -1.875 11.375 C-0.555 11.375 0.765 11.375 2.125 11.375 C2.125 10.715 2.125 10.055 2.125 9.375 C1.135 9.375 0.145 9.375 -0.875 9.375 Z M-1.875 22.375 C-0.69075674 23.79077477 -0.69075674 23.79077477 2.6875 23.4375 C4.3890625 23.4065625 4.3890625 23.4065625 6.125 23.375 C5.795 22.385 5.465 21.395 5.125 20.375 C1.17042152 20.02676193 1.17042152 20.02676193 -1.875 22.375 Z " fill="#A3BAFA" transform="translate(20.875,14.625)"/>
<path d="M0 0 C0 2.97 0 5.94 0 9 C0.99 9 1.98 9 3 9 C3.66 9.66 4.32 10.32 5 11 C5.350625 10.505 5.70125 10.01 6.0625 9.5 C8 8 8 8 11.4375 7.5 C15 8 15 8 17.20703125 9.82421875 C19.89072073 14.57768181 19.42816693 18.95721319 19.25 24.3125 C19.23195313 25.33923828 19.21390625 26.36597656 19.1953125 27.42382812 C19.14831063 29.95017885 19.08262272 32.47460469 19 35 C13.66666667 35 8.33333333 35 3 35 C1.989375 35.04125 0.97875 35.0825 -0.0625 35.125 C-3 35 -3 35 -5 33 C-5.14517744 30.0906442 -5.18630796 27.280054 -5.125 24.375 C-5.11597656 23.57320312 -5.10695313 22.77140625 -5.09765625 21.9453125 C-5.07406223 19.96341477 -5.03819065 17.98167019 -5 16 C-5.66 16 -6.32 16 -7 16 C-7 13.69 -7 11.38 -7 9 C-6.34 9 -5.68 9 -5 9 C-5.0825 8.071875 -5.165 7.14375 -5.25 6.1875 C-5 3 -5 3 -3.0625 1.125 C-1 0 -1 0 0 0 Z M11 15 C10.34 15.66 9.68 16.32 9 17 C5.94616121 16.96692593 3.03129104 16.43304158 0 16 C0 19.63 0 23.26 0 27 C0.99 27 1.98 27 3 27 C3.4125 26.236875 3.825 25.47375 4.25 24.6875 C6.65756447 20.99016885 8.90131345 20.46934046 13 19 C12.67 17.68 12.34 16.36 12 15 C11.67 15 11.34 15 11 15 Z M9 25 C9.33 25.99 9.66 26.98 10 28 C10.99 27.67 11.98 27.34 13 27 C13 26.34 13 25.68 13 25 C11.68 25 10.36 25 9 25 Z " fill="#313538" transform="translate(72,17)"/>
<path d="M0 0 C0.70523804 0.00091141 1.41047607 0.00182281 2.13708496 0.00276184 C2.8619812 -0.00152328 3.58687744 -0.00580841 4.33374023 -0.01022339 C5.86697342 -0.01596858 7.40023386 -0.01646555 8.93347168 -0.01213074 C11.2843654 -0.00896897 13.63400304 -0.03243152 15.98474121 -0.05778503 C17.47302087 -0.06005778 18.96130392 -0.06076164 20.44958496 -0.05973816 C21.50744202 -0.07355278 21.50744202 -0.07355278 22.58666992 -0.08764648 C24.56872559 -0.06877136 24.56872559 -0.06877136 27.79333496 0.30354309 C31.41704137 5.7391027 30.9630959 11.91403944 30.99645996 18.24494934 C31.00216003 19.09024704 31.00786011 19.93554474 31.01373291 20.80645752 C31.02313992 22.58566552 31.02969969 24.3648906 31.03356934 26.14411926 C31.04331679 28.86097859 31.07439698 31.57709395 31.10583496 34.29377747 C31.11236207 36.02749696 31.11761369 37.76122183 31.12145996 39.49494934 C31.13380676 40.30339798 31.14615356 41.11184662 31.15887451 41.9447937 C31.1411187 46.44758988 31.01830319 49.84724803 27.79333496 53.30354309 C25.08532715 53.90290833 25.08532715 53.90290833 21.84020996 53.86213684 C20.07483887 53.85150208 20.07483887 53.85150208 18.27380371 53.84065247 C17.04274902 53.80778137 15.81169434 53.77491028 14.54333496 53.74104309 C13.32774902 53.73524231 12.11216309 53.72944153 10.85974121 53.72346497 C-3.9891545 53.52105363 -3.9891545 53.52105363 -7.20666504 50.30354309 C-7.37968835 47.44178334 -7.49090569 44.60200438 -7.55822754 41.73713684 C-7.5929567 40.43595665 -7.5929567 40.43595665 -7.62838745 39.10848999 C-7.67612958 37.26495933 -7.72135079 35.42136197 -7.76428223 33.57771301 C-7.83080933 30.77706642 -7.90880309 27.97690578 -7.98791504 25.17658997 C-8.03288721 23.38428972 -8.077179 21.59197224 -8.12072754 19.79963684 C-8.14462555 18.96911301 -8.16852356 18.13858917 -8.19314575 17.28289795 C-8.30117651 12.17871874 -8.10533468 7.33811176 -7.20666504 2.30354309 C-4.75093328 -0.15218866 -3.35421435 0.04888163 0 0 Z M-5.20666504 4.30354309 C-5.30461815 5.67964191 -5.33464592 7.06068191 -5.33605957 8.44026184 C-5.33921173 9.3178717 -5.34236389 10.19548157 -5.34561157 11.09968567 C-5.34358734 12.05383362 -5.34156311 13.00798157 -5.33947754 13.99104309 C-5.34043427 14.96388245 -5.34139099 15.9367218 -5.34237671 16.93904114 C-5.34305862 19.00032109 -5.34120356 21.06160318 -5.33703613 23.12287903 C-5.33168804 26.28991997 -5.33698076 29.45681909 -5.34338379 32.62385559 C-5.34272301 34.62125174 -5.34144185 36.6186478 -5.33947754 38.61604309 C-5.34150177 39.57019104 -5.343526 40.52433899 -5.34561157 41.50740051 C-5.34245941 42.38501038 -5.33930725 43.26262024 -5.33605957 44.16682434 C-5.33526398 44.9432428 -5.33446838 45.71966125 -5.33364868 46.51960754 C-5.40070046 48.32787971 -5.40070046 48.32787971 -4.20666504 49.30354309 C-2.00015848 49.4036671 0.20955883 49.43435489 2.41833496 49.43635559 C3.08042969 49.43731232 3.74252441 49.43826904 4.42468262 49.43925476 C5.82686457 49.43993635 7.22904966 49.43808351 8.63122559 49.43391418 C10.78429209 49.42856556 12.93714998 49.43385979 15.09020996 49.44026184 C16.44958542 49.43960106 17.80896076 49.43831988 19.16833496 49.43635559 C20.41356934 49.43522766 21.65880371 49.43409973 22.94177246 49.43293762 C25.69238927 49.62926436 25.69238927 49.62926436 26.79333496 48.30354309 C26.88620757 46.89129263 26.91080268 45.47445375 26.90686035 44.05915833 C26.90678482 43.15830002 26.90670929 42.25744171 26.90663147 41.32928467 C26.90147018 40.35012589 26.8963089 39.3709671 26.89099121 38.36213684 C26.88957626 37.36472977 26.88816132 36.36732269 26.88670349 35.33969116 C26.8810861 32.14011186 26.86853067 28.9406014 26.85583496 25.74104309 C26.8508222 23.57763264 26.84625891 21.4142211 26.84216309 19.25080872 C26.83111103 13.93502984 26.814356 8.61929138 26.79333496 3.30354309 C22.39677323 3.27888806 18.00024776 3.26070467 13.6036377 3.24861145 C12.10688578 3.24357188 10.6101388 3.23674022 9.11340332 3.22810364 C6.96633689 3.2160215 4.81933534 3.21031118 2.67224121 3.20588684 C1.37874756 3.20065002 0.08525391 3.19541321 -1.24743652 3.1900177 C-4.09318908 2.96357377 -4.09318908 2.96357377 -5.20666504 4.30354309 Z " fill="#807AD6" transform="translate(12.2066650390625,4.6964569091796875)"/>
<path d="M0 0 C2.375 1.5 2.375 1.5 4 4 C4.60891847 6.70401084 4.81444126 9.21661895 5 12 C3.35 12 1.7 12 0 12 C-0.33 10.68 -0.66 9.36 -1 8 C-2.65 8.33 -4.3 8.66 -6 9 C-5.79566786 10.95161354 -5.79566786 10.95161354 -5 13 C-3.2518051 14.16620973 -3.2518051 14.16620973 -1.125 14.9375 C1.56564526 16.19120568 2.96321942 16.95977124 5 19.1875 C6.80583839 24.26642048 6.92252745 29.02914589 4.625 33.9375 C3 36 3 36 1 38 C-5.95156695 38.7977208 -5.95156695 38.7977208 -9.875 35.8125 C-11.87948137 33.15950996 -13.17701992 31.2096223 -14 28 C-13.625 25.6875 -13.625 25.6875 -13 24 C-11.35 24 -9.7 24 -8 24 C-7.01 25.98 -6.02 27.96 -5 30 C-3.35 30 -1.7 30 0 30 C0 27.69 0 25.38 0 23 C-0.86625 22.773125 -1.7325 22.54625 -2.625 22.3125 C-6.68689136 20.73287558 -8.85363024 19.00002698 -12 16 C-13.53227504 11.40317487 -13.72063065 7.57852428 -11.6875 3.125 C-8.60078262 -0.76197744 -4.65749336 -0.40855205 0 0 Z " fill="#33373A" transform="translate(58,15)"/>
<path d="M0 0 C2.24834496 -0.13526139 4.49902514 -0.23210804 6.75 -0.3125 C8.00296875 -0.37050781 9.2559375 -0.42851562 10.546875 -0.48828125 C14 0 14 0 16.3984375 2.30859375 C19.13282624 6.90370068 19.28765715 10.56171424 18.25 15.75 C16.36065574 20.66229508 16.36065574 20.66229508 14 22 C11.28167107 22.2368445 8.73981765 22.13474513 6 22 C6 26.62 6 31.24 6 36 C4.35 36 2.7 36 1 36 C0.20446163 23.98168818 -0.12812705 12.04394251 0 0 Z M6 7 C6 9.64 6 12.28 6 15 C7.98 14.67 9.96 14.34 12 14 C13.01111093 10.95086772 13.01111093 10.95086772 12 8 C8.97065509 7.34227572 8.97065509 7.34227572 6 7 Z " fill="#323538" transform="translate(128,16)"/>
<path d="M0 0 C1.65 0 3.3 0 5 0 C5.33 4.95 5.66 9.9 6 15 C6.99 13.35 7.98 11.7 9 10 C12.6875 9.6875 12.6875 9.6875 16 10 C15.58105469 10.53625 15.16210938 11.0725 14.73046875 11.625 C12.54399948 14.99050207 10.73893491 17.89842601 11.25390625 22.04394531 C12.41400836 26.84547903 14.15519327 31.4248793 16 36 C14.02 36 12.04 36 10 36 C8.68 33.03 7.36 30.06 6 27 C5.67 29.97 5.34 32.94 5 36 C3.35 36 1.7 36 0 36 C0 24.12 0 12.24 0 0 Z " fill="#313437" transform="translate(111,16)"/>
<path d="M0 0 C3.1875 0.4375 3.1875 0.4375 5.9375 2.3125 C8.97698759 6.53401054 10.01844682 10.25064101 10.1875 15.4375 C9.4854216 19.74932112 8.22147431 23.18195976 5.4375 26.5625 C2.050989 27.8794765 -0.34146943 27.32103505 -3.8125 26.4375 C-6.39705285 24.54216125 -6.77525506 23.54923483 -7.8125 20.4375 C-7.95804833 18.3158532 -8.03330412 16.18893294 -8.0625 14.0625 C-8.08828125 12.94101562 -8.1140625 11.81953125 -8.140625 10.6640625 C-7.62424445 5.58632039 -5.36347531 0.83431838 0 0 Z M-1.375 8.5 C-3.56479693 11.45146543 -3.13117452 13.86834533 -2.8125 17.4375 C-1.8225 18.9225 -1.8225 18.9225 -0.8125 20.4375 C1.94391416 19.93993908 1.94391416 19.93993908 4.1875 18.4375 C4.75311487 13.0977997 4.75311487 13.0977997 2.75 8.4375 C0.67196285 7.10555271 0.67196285 7.10555271 -1.375 8.5 Z " fill="#303235" transform="translate(155.8125,24.5625)"/>
<path d="M0 0 C3.03439239 2.19150561 3.88280775 3.54024579 4.8125 7.1875 C4.874375 8.115625 4.93625 9.04375 5 10 C4 11 4 11 1.5625 11.25 C0.716875 11.1675 -0.12875 11.085 -1 11 C-1.66 10.01 -2.32 9.02 -3 8 C-4.23267348 9.00836062 -4.23267348 9.00836062 -4.09765625 11.06640625 C-4.08605469 11.89011719 -4.07445313 12.71382812 -4.0625 13.5625 C-4.05347656 14.38878906 -4.04445313 15.21507812 -4.03515625 16.06640625 C-4.02355469 16.70449219 -4.01195313 17.34257813 -4 18 C-3.34 18.33 -2.68 18.66 -2 19 C-1.34 17.68 -0.68 16.36 0 15 C1.65 15.33 3.3 15.66 5 16 C4.7128051 19.73353364 4.46797134 22.32404139 2.3125 25.4375 C-0.75815295 27.5122655 -2.36633823 27.68131158 -6 27 C-10.11335752 22.88664248 -11.15555632 19.37773201 -11.25 13.6875 C-11.20715383 9.06011337 -10.69683062 5.89542201 -8 2 C-4.75173326 -0.16551116 -3.76905843 -0.55156953 0 0 Z " fill="#303438" transform="translate(104,25)"/>
<path d="M0 0 C2.28255287 1.52170192 2.8424439 2.55359106 3.75 5.125 C3.87375 6.053125 3.87375 6.053125 4 7 C3 8 3 8 0.4375 8.0625 C-0.366875 8.041875 -1.17125 8.02125 -2 8 C-2.33 7.34 -2.66 6.68 -3 6 C-3.66 6 -4.32 6 -5 6 C-5.33 6.99 -5.66 7.98 -6 9 C-4.906875 9.268125 -3.81375 9.53625 -2.6875 9.8125 C2.59018659 11.51209399 2.59018659 11.51209399 4 14 C4.51924271 18.59900687 4.57474194 20.89649547 2.4375 25 C0 27 0 27 -3.5 27.5625 C-7 27 -7 27 -9.375 25.25 C-10.94785432 23.07220172 -11.62376963 21.63361256 -12 19 C-10.35 18.67 -8.7 18.34 -7 18 C-6.34 18.99 -5.68 19.98 -5 21 C-4.01 21 -3.02 21 -2 21 C-2 20.01 -2 19.02 -2 18 C-2.56589844 17.73445313 -3.13179687 17.46890625 -3.71484375 17.1953125 C-4.81505859 16.66550781 -4.81505859 16.66550781 -5.9375 16.125 C-6.66839844 15.77695312 -7.39929688 15.42890625 -8.15234375 15.0703125 C-10 14 -10 14 -11 12 C-11.57142857 4.91428571 -11.57142857 4.91428571 -9.4375 1.5 C-6.08965651 -0.56021138 -3.85985753 -0.49125459 0 0 Z " fill="#2E3336" transform="translate(178,25)"/>
<path d="M0 0 C0.70523804 0.00091141 1.41047607 0.00182281 2.13708496 0.00276184 C2.8619812 -0.00152328 3.58687744 -0.00580841 4.33374023 -0.01022339 C5.86697342 -0.01596858 7.40023386 -0.01646555 8.93347168 -0.01213074 C11.2843654 -0.00896897 13.63400304 -0.03243152 15.98474121 -0.05778503 C17.47302087 -0.06005778 18.96130392 -0.06076164 20.44958496 -0.05973816 C21.50744202 -0.07355278 21.50744202 -0.07355278 22.58666992 -0.08764648 C24.56872559 -0.06877136 24.56872559 -0.06877136 27.79333496 0.30354309 C30.08967321 3.74805046 30.33349981 6.24166592 30.79333496 10.30354309 C30.13333496 10.30354309 29.47333496 10.30354309 28.79333496 10.30354309 C28.46333496 14.26354309 28.13333496 18.22354309 27.79333496 22.30354309 C27.13333496 22.30354309 26.47333496 22.30354309 25.79333496 22.30354309 C25.76554483 20.82449077 25.7465954 19.34527251 25.73083496 17.86604309 C25.7192334 17.04233215 25.70763184 16.21862122 25.69567871 15.36994934 C25.82423592 11.33325286 26.3473304 7.31758412 26.79333496 3.30354309 C11.44833496 3.79854309 11.44833496 3.79854309 -4.20666504 4.30354309 C-4.20666504 15.52354309 -4.20666504 26.74354309 -4.20666504 38.30354309 C-4.53666504 37.64354309 -4.86666504 36.98354309 -5.20666504 36.30354309 C-5.86666504 36.30354309 -6.52666504 36.30354309 -7.20666504 36.30354309 C-7.40516355 32.137325 -7.58847496 27.97056852 -7.76916504 23.80354309 C-7.82523926 22.63049622 -7.88131348 21.45744934 -7.93908691 20.24885559 C-8.19642281 14.14141709 -8.40220771 8.31705113 -7.20666504 2.30354309 C-4.75093328 -0.15218866 -3.35421435 0.04888163 0 0 Z " fill="#2D71D9" transform="translate(12.2066650390625,4.6964569091796875)"/>
<path d="M0 0 C0.33 2.97 0.66 5.94 1 9 C1.66 9 2.32 9 3 9 C3.93423645 12.01031744 4.04449911 12.86650268 3 16 C2.34 16 1.68 16 1 16 C1 19.63 1 23.26 1 27 C1.99 27 2.98 27 4 27 C4.04241723 29.33294775 4.04092937 31.66702567 4 34 C3 35 3 35 0.0625 35.25 C-0.948125 35.1675 -1.95875 35.085 -3 35 C-5.52775351 31.20836973 -5.22443035 28.19125969 -5.125 23.8125 C-5.11597656 23.06291016 -5.10695312 22.31332031 -5.09765625 21.54101562 C-5.07412578 19.69387346 -5.03825561 17.84689588 -5 16 C-5.66 16 -6.32 16 -7 16 C-7 13.69 -7 11.38 -7 9 C-6.34 9 -5.68 9 -5 9 C-5.0825 8.2575 -5.165 7.515 -5.25 6.75 C-5 4 -5 4 -3.0625 1.6875 C-1 0 -1 0 0 0 Z " fill="#31373B" transform="translate(190,17)"/>
<path d="M0 0 C1.4375 1.0625 1.4375 1.0625 3 3 C3.144375 4.175625 3.28875 5.35125 3.4375 6.5625 C3.623125 7.696875 3.80875 8.83125 4 10 C5.97113737 11.24901333 5.97113737 11.24901333 8 12 C8.05449838 13.72880982 8.09301688 15.45812712 8.125 17.1875 C8.14820312 18.15042969 8.17140625 19.11335938 8.1953125 20.10546875 C7.98848216 23.17069441 7.3692407 25.26151859 6 28 C2.52939158 30.96022483 -0.47418249 31.41494421 -5.00390625 31.2265625 C-7.90389392 30.89740539 -10.34360969 30.20170038 -13 29 C-15.29013653 25.5647952 -15.17842973 24.014669 -15 20 C-14.67 20 -14.34 20 -14 20 C-13.34 22.31 -12.68 24.62 -12 27 C-11.01 24.03 -10.02 21.06 -9 18 C-5.7 18 -2.4 18 1 18 C1.33 19.32 1.66 20.64 2 22 C2.99 22 3.98 22 5 22 C5.33 18.7 5.66 15.4 6 12 C5.01 12 4.02 12 3 12 C2.49440092 10.56445975 1.9957251 9.1264798 1.5 7.6875 C1.2215625 6.88699219 0.943125 6.08648437 0.65625 5.26171875 C0 3 0 3 0 0 Z M-8 21 C-6.81575674 22.41577477 -6.81575674 22.41577477 -3.4375 22.0625 C-1.7359375 22.0315625 -1.7359375 22.0315625 0 22 C-0.33 21.01 -0.66 20.02 -1 19 C-4.95457848 18.65176193 -4.95457848 18.65176193 -8 21 Z " fill="#D3C8F9" transform="translate(27,16)"/>
<path d="M0 0 C13.47855295 -0.37096935 13.47855295 -0.37096935 15.94921875 1.38671875 C17 3 17 3 17 5 C16.34 5 15.68 5 15 5 C14.67 5.66 14.34 6.32 14 7 C13.34 7 12.68 7 12 7 C11.01 7.33 10.02 7.66 9 8 C8.01 7.67 7.02 7.34 6 7 C6.0825 7.7425 6.165 8.485 6.25 9.25 C5.92535373 12.82110901 4.67209691 13.72085852 2 16 C1.34 16.66 0.68 17.32 0 18 C0 12.06 0 6.12 0 0 Z " fill="#2B3238" transform="translate(128,16)"/>
<path d="M0 0 C2.375 1.5 2.375 1.5 4 4 C4.60891847 6.70401084 4.81444126 9.21661895 5 12 C3.35 12 1.7 12 0 12 C-0.33 10.68 -0.66 9.36 -1 8 C-2.98 8.33 -4.96 8.66 -7 9 C-7.33 10.32 -7.66 11.64 -8 13 C-8.99 13 -9.98 13 -11 13 C-11.15620438 3.62773723 -11.15620438 3.62773723 -10 1 C-6.40735548 -0.19754817 -3.77282526 -0.33094958 0 0 Z " fill="#303234" transform="translate(58,15)"/>
<path d="M0 0 C0.90105469 0.02707031 1.80210938 0.05414063 2.73046875 0.08203125 C3.76107422 0.13423828 3.76107422 0.13423828 4.8125 0.1875 C6.96555957 4.04506507 8.20503254 6.73879785 7.8125 11.1875 C7.4825 10.5275 7.1525 9.8675 6.8125 9.1875 C5.8225 9.5175 4.8325 9.8475 3.8125 10.1875 C3.4825 9.8575 3.1525 9.5275 2.8125 9.1875 C-1.13586905 8.9242754 -3.79129269 9.09752627 -7.1875 11.1875 C-9.1875 8.1875 -9.1875 8.1875 -9 5.6875 C-7.37610683 0.69090562 -5.08764982 -0.19822012 0 0 Z " fill="#7FC1F3" transform="translate(21.1875,14.8125)"/>
<path d="M0 0 C0.33 0 0.66 0 1 0 C1.33 2.64 1.66 5.28 2 8 C2.66 7.34 3.32 6.68 4 6 C6.625 5.375 6.625 5.375 9 5 C9.99 6.485 9.99 6.485 11 8 C13.6081404 8.27454109 15.650558 8.08985651 18.1875 7.4375 C20 7 20 7 22 8 C22 10.97 22 13.94 22 17 C21.67 16.01 21.34 15.02 21 14 C20.01 14 19.02 14 18 14 C17.67 13.01 17.34 12.02 17 11 C13.7 10.67 10.4 10.34 7 10 C7 11.65 7 13.3 7 15 C6 17.8125 6 17.8125 5 20 C1.56566445 16.87787677 0.08887278 14.47173328 -0.1953125 9.765625 C-0.17210937 8.60546875 -0.14890625 7.4453125 -0.125 6.25 C-0.09792969 4.49429687 -0.09792969 4.49429687 -0.0703125 2.703125 C-0.04710937 1.81109375 -0.02390625 0.9190625 0 0 Z " fill="#B7B9F7" transform="translate(11,24)"/>
<path d="M0 0 C0.33 0 0.66 0 1 0 C1.33 3.3 1.66 6.6 2 10 C2.99 9.34 3.98 8.68 5 8 C5.59732819 10.76264289 6 13.16032769 6 16 C4.35 16.33 2.7 16.66 1 17 C1.33 17.99 1.66 18.98 2 20 C2.99 19.34 3.98 18.68 5 18 C5 22.62 5 27.24 5 32 C3.35 32 1.7 32 0 32 C0 21.44 0 10.88 0 0 Z " fill="#393E43" transform="translate(129,20)"/>
<path d="M0 0 C0.66 0 1.32 0 2 0 C2.33 3.96 2.66 7.92 3 12 C18.84 12.495 18.84 12.495 35 13 C35 13.66 35 14.32 35 15 C34.18732666 14.99476318 33.37465332 14.98952637 32.53735352 14.98413086 C28.87907678 14.96343006 25.22081233 14.95036197 21.5625 14.9375 C20.28310547 14.92912109 19.00371094 14.92074219 17.68554688 14.91210938 C16.47060547 14.90888672 15.25566406 14.90566406 14.00390625 14.90234375 C12.87799072 14.89710693 11.7520752 14.89187012 10.59204102 14.88647461 C8.07029129 14.70454552 8.07029129 14.70454552 7 16 C4.5625 16.1875 4.5625 16.1875 2 16 C0 14 0 14 -0.1953125 10.7421875 C-0.17210937 9.46601562 -0.14890625 8.18984375 -0.125 6.875 C-0.10695313 5.59367187 -0.08890625 4.31234375 -0.0703125 2.9921875 C-0.04710937 2.00476562 -0.02390625 1.01734375 0 0 Z " fill="#8423C8" transform="translate(5,41)"/>
<path d="M0 0 C1.32 0.33 2.64 0.66 4 1 C4 9.91 4 18.82 4 28 C3.67 27.34 3.34 26.68 3 26 C2.34 26 1.68 26 1 26 C0.67 17.42 0.34 8.84 0 0 Z " fill="#2C71D9" transform="translate(4,15)"/>
<path d="M0 0 C3.43942746 0.58721932 4.50490376 1.64504796 6.5625 4.4375 C7.375 7.625 7.375 7.625 7.5625 10.4375 C6.5625 11.4375 6.5625 11.4375 4.125 11.6875 C3.279375 11.605 2.43375 11.5225 1.5625 11.4375 C0.9025 10.4475 0.2425 9.4575 -0.4375 8.4375 C-2.08444485 6.75134218 -3.74876121 5.08179829 -5.4375 3.4375 C-3.69857595 1.24096435 -2.79998966 0.50256225 0 0 Z " fill="#2A2A2D" transform="translate(101.4375,24.5625)"/>
<path d="M0 0 C3.95819611 -0.08678303 7.91614934 -0.14031733 11.875 -0.1875 C13.00292969 -0.21263672 14.13085938 -0.23777344 15.29296875 -0.26367188 C16.36933594 -0.27333984 17.44570313 -0.28300781 18.5546875 -0.29296875 C20.04718018 -0.31653442 20.04718018 -0.31653442 21.56982422 -0.34057617 C22.37178223 -0.22818604 23.17374023 -0.1157959 24 0 C26.29633824 3.44450737 26.54016485 5.93812283 27 10 C26.34 10 25.68 10 25 10 C24.67 13.96 24.34 17.92 24 22 C23.34 22 22.68 22 22 22 C21.97193841 20.56262294 21.95315002 19.12506577 21.9375 17.6875 C21.92589844 16.88699219 21.91429688 16.08648438 21.90234375 15.26171875 C22.04503327 10.49588866 22.56832867 5.74838463 23 1 C15.41 1 7.82 1 0 1 C0 0.67 0 0.34 0 0 Z " fill="#4780CE" transform="translate(16,5)"/>
<path d="M0 0 C3.6875 -0.3125 3.6875 -0.3125 7 0 C5.02 3.63 3.04 7.26 1 11 C-0.98 10.34 -2.96 9.68 -5 9 C-5 7.02 -5 5.04 -5 3 C-4.34 3.66 -3.68 4.32 -3 5 C-2.649375 4.175 -2.29875 3.35 -1.9375 2.5 C-1.298125 1.675 -0.65875 0.85 0 0 Z " fill="#3B3E42" transform="translate(120,26)"/>
<path d="M0 0 C0 3.74161103 -0.51338171 7.28953557 -1 11 C-0.01 11 0.98 11 2 11 C2 9.35 2 7.7 2 6 C2.2475 6.61875 2.495 7.2375 2.75 7.875 C4.20628639 10.35068687 5.37812506 10.95125002 8 12 C7.67 12.99 7.34 13.98 7 15 C6.01 14.67 5.02 14.34 4 14 C4 14.66 4 15.32 4 16 C3.01 16.33 2.02 16.66 1 17 C-2.21702267 14.06271843 -2.92910162 11.97485269 -3.25 7.5625 C-2.99048487 3.86440936 -2.5119293 2.61659303 0 0 Z " fill="#404650" transform="translate(48,17)"/>
<path d="M0 0 C9.24 0 18.48 0 28 0 C27.67 0.99 27.34 1.98 27 3 C18.09 3 9.18 3 0 3 C0 2.01 0 1.02 0 0 Z " fill="#8163D0" transform="translate(13,55)"/>
<path d="M0 0 C2.97 0.495 2.97 0.495 6 1 C5.83628906 1.70511719 5.67257813 2.41023438 5.50390625 3.13671875 C4.98300176 6.09658688 4.90133268 8.81061273 4.9375 11.8125 C4.94652344 12.78832031 4.95554687 13.76414062 4.96484375 14.76953125 C4.97644531 15.50558594 4.98804687 16.24164063 5 17 C4.34 17 3.68 17 3 17 C1.64560332 14.29120665 1.93498549 11.99066732 2 9 C1.01 8.67 0.02 8.34 -1 8 C-1.125 2.25 -1.125 2.25 0 0 Z " fill="#34383E" transform="translate(95,28)"/>
<path d="M0 0 C2.27024968 -0.08097324 4.54132075 -0.13917704 6.8125 -0.1875 C8.07707031 -0.22230469 9.34164062 -0.25710938 10.64453125 -0.29296875 C14 0 14 0 15.94921875 1.38671875 C17 3 17 3 17 5 C16.34 5 15.68 5 15 5 C14.67 5.66 14.34 6.32 14 7 C13.34 7 12.68 7 12 7 C11.01 7.33 10.02 7.66 9 8 C8.67 5.69 8.34 3.38 8 1 C5.69 1 3.38 1 1 1 C0.67 1.66 0.34 2.32 0 3 C0 2.01 0 1.02 0 0 Z " fill="#27282A" transform="translate(128,16)"/>
<path d="M0 0 C1.65 0 3.3 0 5 0 C5.14929757 2.68735631 5.25017853 4.51527911 4 6.9375 C2.77385882 9.06806421 2.77385882 9.06806421 3.0625 12 C3 15 3 15 0 19 C0 12.73 0 6.46 0 0 Z " fill="#23272A" transform="translate(111,16)"/>
<path d="M0 0 C0.8971875 0.5259375 0.8971875 0.5259375 1.8125 1.0625 C4.10813214 2.33304698 4.10813214 2.33304698 7 1 C7.33 1.99 7.66 2.98 8 4 C8.99 4.66 9.98 5.32 11 6 C10.34 6.66 9.68 7.32 9 8 C8.67 7.67 8.34 7.34 8 7 C5.1007774 7.46761655 4.13324818 7.86675182 2 10 C0.41727399 8.41727399 0.65264253 6.61965997 0.4375 4.4375 C0.35371094 3.61121094 0.26992187 2.78492188 0.18359375 1.93359375 C0.12300781 1.29550781 0.06242188 0.65742188 0 0 Z " fill="#9AC0FB" transform="translate(11,23)"/>
<path d="M0 0 C1.32 0.33 2.64 0.66 4 1 C4.99 0.67 5.98 0.34 7 0 C7.93402724 5.41735797 8.20808081 8.80451575 6 14 C5.34 13.01 4.68 12.02 4 11 C4.66 11 5.32 11 6 11 C5.67 9.68 5.34 8.36 5 7 C4.01 7.495 4.01 7.495 3 8 C2.01 5.36 1.02 2.72 0 0 Z " fill="#33393E" transform="translate(158,32)"/>
<path d="M0 0 C0.99 2.97 1.98 5.94 3 9 C1.02 9 -0.96 9 -3 9 C-3.66 6.36 -4.32 3.72 -5 1 C-3 0 -3 0 0 0 Z " fill="#292F31" transform="translate(124,43)"/>
<path d="M0 0 C0.33 0.66 0.66 1.32 1 2 C-3.46236469 3.80619523 -6.31034294 4.11658501 -11 3 C-11 2.34 -11 1.68 -11 1 C-10.34 1 -9.68 1 -9 1 C-9 0.34 -9 -0.32 -9 -1 C-5.39416086 -2.33549598 -3.37916196 -1.73524533 0 0 Z " fill="#313437" transform="translate(61,32)"/>
<path d="M0 0 C0.66 0 1.32 0 2 0 C2.02578125 0.84304687 2.0515625 1.68609375 2.078125 2.5546875 C2.13484375 3.65039062 2.1915625 4.74609375 2.25 5.875 C2.29640625 6.96554688 2.3428125 8.05609375 2.390625 9.1796875 C2.68846128 12.1332065 2.68846128 12.1332065 5.046875 13.3828125 C5.69140625 13.58648437 6.3359375 13.79015625 7 14 C7 14.66 7 15.32 7 16 C4.625 16.125 4.625 16.125 2 16 C0 14 0 14 -0.1953125 10.7421875 C-0.17210937 9.46601562 -0.14890625 8.18984375 -0.125 6.875 C-0.10695313 5.59367187 -0.08890625 4.31234375 -0.0703125 2.9921875 C-0.04710937 2.00476562 -0.02390625 1.01734375 0 0 Z " fill="#4D208A" transform="translate(5,41)"/>
<path d="M0 0 C0.33 0 0.66 0 1 0 C1 7.26 1 14.52 1 22 C-0.65 22 -2.3 22 -4 22 C-4 21.34 -4 20.68 -4 20 C-4.66 19.67 -5.32 19.34 -6 19 C-5.01 18.34 -4.02 17.68 -3 17 C-2.01 17.33 -1.02 17.66 0 18 C0 12.06 0 6.12 0 0 Z " fill="#27313B" transform="translate(90,30)"/>
<path d="M0 0 C0.33 0 0.66 0 1 0 C1.66 2.64 2.32 5.28 3 8 C-0.4019487 10.09350689 -3.05272412 10.17942163 -7 10 C-7.33 9.01 -7.66 8.02 -8 7 C-5.525 7.495 -5.525 7.495 -3 8 C-2.690625 6.865625 -2.38125 5.73125 -2.0625 4.5625 C-1 1 -1 1 0 0 Z " fill="#3B424A" transform="translate(76,42)"/>
<path d="M0 0 C1.32 0 2.64 0 4 0 C4.38133299 1.9914056 4.71325582 3.99279077 5 6 C4 7 4 7 1.4375 7.0625 C0.2309375 7.0315625 0.2309375 7.0315625 -1 7 C-1.625 4.625 -1.625 4.625 -2 2 C-1.34 1.34 -0.68 0.68 0 0 Z " fill="#2F3439" transform="translate(104,29)"/>
<path d="M0 0 C0.33 0 0.66 0 1 0 C1 2.97 1 5.94 1 9 C2.32 8.01 3.64 7.02 5 6 C5.66 7.32 6.32 8.64 7 10 C6.01 11.485 6.01 11.485 5 13 C3.68 13 2.36 13 1 13 C-0.00496852 9.98509443 -0.10335303 7.95818308 -0.0625 4.8125 C-0.05347656 3.91144531 -0.04445312 3.01039062 -0.03515625 2.08203125 C-0.02355469 1.39496094 -0.01195312 0.70789062 0 0 Z " fill="#3C3F41" transform="translate(148,35)"/>
<path d="M0 0 C2.69282475 4.03923713 3.13300939 6.95536152 3.0625 11.75 C3.05347656 12.54921875 3.04445313 13.3484375 3.03515625 14.171875 C3.01775391 15.07679687 3.01775391 15.07679687 3 16 C2.67 15.34 2.34 14.68 2 14 C1.34 14 0.68 14 0 14 C0 9.38 0 4.76 0 0 Z " fill="#6E62C3" transform="translate(5,27)"/>
<path d="M0 0 C2.64 0 5.28 0 8 0 C8.33 1.65 8.66 3.3 9 5 C6.16032769 5 3.76264289 4.59732819 1 4 C0.67 2.68 0.34 1.36 0 0 Z " fill="#79C9FA" transform="translate(19,16)"/>
<path d="M0 0 C0.66 1.32 1.32 2.64 2 4 C1.01 4.495 1.01 4.495 0 5 C-0.46898963 7.8159849 -0.46898963 7.8159849 -0.625 11.0625 C-0.69976562 12.16722656 -0.77453125 13.27195312 -0.8515625 14.41015625 C-0.90054688 15.26480469 -0.94953125 16.11945312 -1 17 C-1.66 17 -2.32 17 -3 17 C-3 13.7 -3 10.4 -3 7 C-2.67 7 -2.34 7 -2 7 C-1.34 4.69 -0.68 2.38 0 0 Z " fill="#2D9DE9" transform="translate(41,10)"/>
<path d="M0 0 C0.99 0 1.98 0 3 0 C3.22036864 3.85645121 2.60355101 6.49223216 1 10 C-0.5625 8.875 -0.5625 8.875 -2 7 C-1.56521739 1.56521739 -1.56521739 1.56521739 0 0 Z " fill="#C2B9F8" transform="translate(15,34)"/>
<path d="M0 0 C3.3 0 6.6 0 10 0 C10.33 1.32 10.66 2.64 11 4 C10 5 10 5 7.71484375 5.09765625 C6.34005859 5.08025391 6.34005859 5.08025391 4.9375 5.0625 C4.01839844 5.05347656 3.09929688 5.04445313 2.15234375 5.03515625 C1.44207031 5.02355469 0.73179688 5.01195312 0 5 C0 3.35 0 1.7 0 0 Z M1 3 C2.18424326 4.41577477 2.18424326 4.41577477 5.5625 4.0625 C7.2640625 4.0315625 7.2640625 4.0315625 9 4 C8.67 3.01 8.34 2.02 8 1 C4.04542152 0.65176193 4.04542152 0.65176193 1 3 Z " fill="#E5E6FE" transform="translate(18,34)"/>
<path d="M0 0 C1.2065625 0.0309375 1.2065625 0.0309375 2.4375 0.0625 C2.1075 1.3825 1.7775 2.7025 1.4375 4.0625 C1.1075 4.0625 0.7775 4.0625 0.4375 4.0625 C0.1075 5.7125 -0.2225 7.3625 -0.5625 9.0625 C-3.14031906 6.48468094 -3.18379616 4.6223161 -3.5625 1.0625 C-2.5625 0.0625 -2.5625 0.0625 0 0 Z " fill="#404959" transform="translate(47.5625,38.9375)"/>
<path d="M0 0 C2.31 0 4.62 0 7 0 C6.01 1.98 5.02 3.96 4 6 C2.35 5.01 0.7 4.02 -1 3 C-0.67 2.01 -0.34 1.02 0 0 Z " fill="#2D3136" transform="translate(120,26)"/>
<path d="M0 0 C0.33 0 0.66 0 1 0 C1.33 2.64 1.66 5.28 2 8 C3.32 7.34 4.64 6.68 6 6 C5.01 8.31 4.02 10.62 3 13 C2.01 13 1.02 13 0 13 C0 8.71 0 4.42 0 0 Z " fill="#ADC3ED" transform="translate(11,24)"/>
<path d="M0 0 C0.99 0 1.98 0 3 0 C3.33 2.31 3.66 4.62 4 7 C2.35 7 0.7 7 -1 7 C-0.67 4.69 -0.34 2.38 0 0 Z " fill="#2D3135" transform="translate(130,45)"/>
<path d="M0 0 C0.33 0 0.66 0 1 0 C1 4.95 1 9.9 1 15 C0.67 13.68 0.34 12.36 0 11 C-0.66 11 -1.32 11 -2 11 C-2 8.69 -2 6.38 -2 4 C-1.34 4 -0.68 4 0 4 C0 2.68 0 1.36 0 0 Z " fill="#3E4349" transform="translate(67,22)"/>
<path d="M0 0 C0.99 1.32 1.98 2.64 3 4 C0.69 4.33 -1.62 4.66 -4 5 C-2.25 1.125 -2.25 1.125 0 0 Z " fill="#ACB9FD" transform="translate(19,29)"/>
<path d="M0 0 C1.98 0 3.96 0 6 0 C6.5625 1.9375 6.5625 1.9375 7 4 C6 5 6 5 3.4375 5.0625 C2.2309375 5.0315625 2.2309375 5.0315625 1 5 C0.67 3.35 0.34 1.7 0 0 Z M2 1 C1.67 1.66 1.34 2.32 1 3 C2.32 3 3.64 3 5 3 C5 2.34 5 1.68 5 1 C4.01 1 3.02 1 2 1 Z " fill="#B9E4FE" transform="translate(18,23)"/>
<path d="M0 0 C0 1.98 0 3.96 0 6 C-0.66 6 -1.32 6 -2 6 C-2.33 6.66 -2.66 7.32 -3 8 C-3.66 8 -4.32 8 -5 8 C-3.91891892 0 -3.91891892 0 0 0 Z " fill="#1A1E23" transform="translate(190,17)"/>
<path d="M0 0 C0.66 0 1.32 0 2 0 C2.5625 1.9375 2.5625 1.9375 3 4 C2 5 2 5 -0.5625 5.0625 C-1.7690625 5.0315625 -1.7690625 5.0315625 -3 5 C-3.66 3.68 -4.32 2.36 -5 1 C-3.68 1.33 -2.36 1.66 -1 2 C-0.67 1.34 -0.34 0.68 0 0 Z " fill="#32393F" transform="translate(179,28)"/>
<path d="M0 0 C0.93423645 3.01031744 1.04449911 3.86650268 0 7 C-0.99 7.33 -1.98 7.66 -3 8 C-3.33 6.35 -3.66 4.7 -4 3 C-2.68 2.01 -1.36 1.02 0 0 Z " fill="#282C30" transform="translate(71,17)"/>
<path d="M0 0 C0.99 0.33 1.98 0.66 3 1 C3 1.66 3 2.32 3 3 C3.99 3.33 4.98 3.66 6 4 C5.01 4 4.02 4 3 4 C2.67 4.99 2.34 5.98 2 7 C0.4375 5.1875 0.4375 5.1875 -1 3 C-0.67 2.01 -0.34 1.02 0 0 Z " fill="#343D45" transform="translate(78,38)"/>
<path d="M0 0 C0.66 0.33 1.32 0.66 2 1 C2 2.65 2 4.3 2 6 C0.35 6 -1.3 6 -3 6 C-3 3 -3 3 -1.5 1.3125 C-0.7575 0.6628125 -0.7575 0.6628125 0 0 Z " fill="#363A3D" transform="translate(61,21)"/>
<path d="M0 0 C0.33 0 0.66 0 1 0 C1.66 3.3 2.32 6.6 3 10 C2.34 10 1.68 10 1 10 C0.67 10.66 0.34 11.32 0 12 C0 8.04 0 4.08 0 0 Z " fill="#5356E2" transform="translate(40,21)"/>
<path d="M0 0 C0.99 0.33 1.98 0.66 3 1 C2.67 3.31 2.34 5.62 2 8 C1.34 7.67 0.68 7.34 0 7 C0 4.69 0 2.38 0 0 Z " fill="#8748CF" transform="translate(40,48)"/>
<path d="M0 0 C2.56687367 3.8503105 1.83288724 5.58569763 1 10 C0.34 9.67 -0.32 9.34 -1 9 C-1.09765625 2.84765625 -1.09765625 2.84765625 -1 1 C-0.67 0.67 -0.34 0.34 0 0 Z " fill="#2E5AAA" transform="translate(6,6)"/>
</svg>
